<?xml version="1.0" encoding="UTF-8"?>
<!DOCTYPE svg PUBLIC "-//W3C//DTD SVG 1.1//EN" "http://www.w3.org/Graphics/SVG/1.1/DTD/svg11.dtd">
<!-- Creator: CorelDRAW 2017 -->
<svg xmlns="http://www.w3.org/2000/svg" xml:space="preserve" width="145px" height="145px" version="1.1" style="shape-rendering:geometricPrecision; text-rendering:geometricPrecision; image-rendering:optimizeQuality; fill-rule:evenodd; clip-rule:evenodd"
viewBox="0 0 145 145"
 xmlns:xlink="http://www.w3.org/1999/xlink">
 <defs>
  <style type="text/css">
   <![CDATA[
    .str0 {stroke:steelblue;stroke-width:2}
    .fil1 {fill:steelblue}
    .fil0 {fill:steelblue;fill-rule:nonzero}
   ]]>
  </style>
 </defs>
 <g id="Слой_x0020_1">
  <metadata id="CorelCorpID_0Corel-Layer"/>
  <path class="fil0 str0" d="M123 55l-25 0 0 7 -25 -13 25 -13 0 7 25 0 0 13zm-12 0m-12 3m-12 -3m0 -13m12 -3m12 3m12 7"/>
 </g>
 <g id="Слой_x0020_1_0">
  <metadata id="CorelCorpID_1Corel-Layer"/>
  <g id="_2112834076304">
   <path class="fil0" d="M91 81c-5,5 -5,11 -11,11 -5,0 -11,-5 -16,-11 -5,-5 -11,-11 -11,-16 0,-5 5,-5 11,-11 5,-5 -11,-21 -16,-21 -5,0 -16,16 -16,16 0,11 11,32 21,43 10,10 32,21 43,21 0,0 16,-11 16,-16 0,-5 -16,-21 -21,-16l0 0z"/>
   <path class="fil1" d="M73 0c40,0 72,32 72,72 0,40 -32,72 -72,72 -40,0 -72,-32 -72,-72 0,-40 32,-72 72,-72zm0 6c37,0 66,30 66,66 0,37 -30,66 -66,66 -37,0 -66,-30 -66,-66 0,-37 30,-66 66,-66z"/>
  </g>
 </g>
</svg>
