<?xml version="1.0" encoding="UTF-8"?>
<!DOCTYPE svg PUBLIC "-//W3C//DTD SVG 1.1//EN" "http://www.w3.org/Graphics/SVG/1.1/DTD/svg11.dtd">
<!-- Creator: CorelDRAW 2017 -->
<svg xmlns="http://www.w3.org/2000/svg" xml:space="preserve" width="1024px" height="512px" version="1.1" style="shape-rendering:geometricPrecision; text-rendering:geometricPrecision; image-rendering:optimizeQuality; fill-rule:evenodd; clip-rule:evenodd"
viewBox="0 0 1024 512"
 xmlns:xlink="http://www.w3.org/1999/xlink">
 <defs>
  <style type="text/css">
   <![CDATA[
    .str2 {stroke:#FEFEFE}
    .str4 {stroke:#D9DADA}
    .str5 {stroke:#898989}
    .str3 {stroke:#2B2A29}
    .str1 {stroke:#FEFEFE;stroke-dasharray:2.000000 5.000000}
    .str0 {stroke:#727271;stroke-linecap:round}
    .fil1 {fill:none}
    .fil5 {fill:#FEFEFE}
    .fil7 {fill:#898989}
    .fil3 {fill:#5B5B5B}
    .fil6 {fill:#2B2A29}
    .fil4 {fill:#FF5F25}
    .fil0 {fill:url(#id0)}
    .fil2 {fill:url(#id1)}
   ]]>
  </style>
  <linearGradient id="id0" gradientUnits="userSpaceOnUse" x1="182" y1="494" x2="360" y2="-38">
   <stop offset="0" style="stop-opacity:1; stop-color:#C9DB89"/>
   <stop offset="1" style="stop-opacity:1; stop-color:#E53124"/>
  </linearGradient>
  <radialGradient id="id1" gradientUnits="userSpaceOnUse" gradientTransform="matrix(1.02025 -0.0177503 0.0178085 1.01691 -21 10)" cx="812" cy="256" r="73" fx="812" fy="256">
   <stop offset="0" style="stop-opacity:1; stop-color:#EDCCCC"/>
   <stop offset="0.580392" style="stop-opacity:1; stop-color:#9D8A8A"/>
   <stop offset="1" style="stop-opacity:1; stop-color:#4D4949"/>
  </radialGradient>
 </defs>
 <g id="Use">
  <metadata id="CorelCorpID_0Corel-Layer"/>
  <path class="fil0 str0" d="M330 436l0 -102 -18 0 0 -17 113 0 0 41 -17 0 0 -24 -58 0 0 40 50 0 0 17 -50 0 0 44 58 0 0 -25 17 0 0 42 -113 0 0 -17 18 0zm-123 -54l31 0 23 0 25 0 0 20 -30 0c-12,31 -47,54 -87,54l0 0c-24,0 -39,-16 -55,-29 -4,-3 -9,-7 -13,-12l0 41 19 0 0 20 -80 0 0 -20 21 0 0 -341 -20 0 0 -20 80 0 0 20 -20 0 0 152c2,-2 4,-4 6,-5l0 0 169 -169 -22 -38 50 0 50 0 -25 44 -25 44 -18 -31 -131 131c4,-1 9,-1 14,-1l0 0c49,0 90,34 92,77l-23 0c-1,-15 -8,-29 -20,-39 -13,-11 -30,-18 -49,-18l0 0c-19,0 -36,7 -49,18 -10,8 -17,19 -19,32l0 60c3,15 14,31 24,40 13,11 25,24 44,24l0 0c19,0 36,-7 49,-18 5,-5 10,-10 13,-16l-25 0 0 -20zm235 3c0,-20 6,-36 19,-50 13,-13 30,-20 50,-20 21,0 38,7 51,20 13,13 20,30 20,50 0,20 -7,37 -20,50 -13,13 -30,20 -51,20 -13,0 -25,-3 -36,-9 -11,-6 -19,-15 -25,-26 -6,-11 -8,-23 -8,-35zm22 0c0,15 4,27 13,38 9,10 20,15 34,15 14,0 26,-5 35,-16 9,-10 14,-23 14,-37 0,-14 -5,-27 -14,-37 -9,-10 -21,-15 -35,-15 -14,0 -25,5 -34,15 -9,10 -13,22 -13,37z"/>
  <line class="fil1 str1" x1="1343" y1="158" x2="1343" y2= "495" />
  <g>
   <path class="fil2" d="M812 330c41,0 74,-33 74,-74 0,-41 -33,-74 -74,-74 -41,0 -74,33 -74,74 0,41 33,74 74,74z"/>
   <path id="1" class="fil3" d="M812 329c20,0 39,-8 52,-21 13,-13 21,-31 21,-52 0,-20 -8,-38 -21,-52 -13,-13 -32,-21 -52,-21 -20,0 -39,8 -52,21 -13,13 -21,31 -21,52 0,20 8,38 21,52 13,13 32,21 52,21zm0 1c41,0 74,-33 74,-74 0,-41 -33,-74 -74,-74 -41,0 -74,33 -74,74 0,41 33,74 74,74z"/>
  </g>
  <g>
   <path class="fil4" d="M655 398l-22 0c-9,0 -16,-7 -16,-16l0 -261c0,-15 13,-28 28,-28l335 0c15,0 28,13 28,28l0 261c0,9 -7,16 -16,16l-20 0 -9 -12 -34 -113 0 -47c-1,-5 -5,-15 -17,-14 -14,1 -19,8 -21,16 -11,-33 -42,-55 -78,-55 -34,0 -64,21 -77,54 -2,-8 -6,-14 -20,-15 -13,-1 -16,9 -17,14l0 47 -34 113 -9 12z"/>
   <path id="1" class="fil4" d="M655 398l-22 0c-9,0 -16,-7 -16,-16l0 -261c0,-15 13,-28 28,-28l335 0c15,0 28,13 28,28l0 261c0,9 -7,16 -16,16l-20 0 -9 -12 -34 -113 0 -47c-1,-5 -5,-15 -17,-14 -14,1 -19,8 -21,16 -11,-33 -42,-55 -78,-55 -34,0 -64,21 -77,54 -2,-8 -6,-14 -20,-15 -13,-1 -16,9 -17,14l0 47 -34 113 -9 12zm-22 -1l22 0 9 -11 34 -113 0 -46 0 0 0 0c1,-2 2,-6 5,-9 3,-3 7,-6 14,-5 7,0 12,2 15,5 2,2 4,5 5,8 7,-16 17,-28 30,-37 14,-10 30,-15 47,-15 18,0 35,6 48,15 13,9 23,22 29,38 1,-4 3,-7 7,-9 4,-3 8,-4 15,-5 7,0 11,2 14,5 3,3 4,7 5,9l0 0 0 0 0 46 34 113 9 11 19 0c4,0 8,-2 11,-4 3,-3 4,-6 4,-11l0 -261c0,-7 -3,-14 -8,-19 -5,-5 -12,-8 -19,-8l-335 0c-7,0 -14,3 -19,8 -5,5 -8,12 -8,19l0 261c0,4 2,8 4,11 3,3 6,4 11,4z"/>
  </g>
  <g>
   <polygon class="fil5 str2" points="934,256 968,220 1003,183 1003,256 1003,329 968,292 "/>
   <g>
    <path class="fil6" d="M985 256l15 -35 -63 35 63 35 -15 -35zm15 35l-15 -35 15 35z"/>
    <path id="1" class="fil1 str3" d="M985 256l15 -35 -63 35 63 35m0 0l-15 -35 15 35z"/>
   </g>
  </g>
  <g>
   <polygon class="fil5 str2" points="691,256 656,220 621,183 621,256 621,329 656,292 "/>
   <g>
    <path class="fil6" d="M640 256l-16 -35 64 35 -64 35 16 -35zm-16 35l16 -35 -16 35z"/>
    <path id="1" class="fil1 str3" d="M640 256l-16 -35 64 35 -64 35m0 0l16 -35 -16 35z"/>
   </g>
  </g>
  <g>
   <polygon class="fil5 str2" points="812,168 776,133 739,98 812,98 885,98 848,133 "/>
   <g>
    <path class="fil6" d="M812 116l-35 -16 35 64 35 -64 -35 16zm35 -16l-35 16 35 -16z"/>
    <path id="1" class="fil1 str3" d="M812 116l-35 -16 35 64 35 -64m0 0l-35 16 35 -16z"/>
   </g>
  </g>
  <line class="fil1 str2" x1="775" y1="192" x2="849" y2= "320" />
  <g>
   <line class="fil1 str4" x1="775" y1="320" x2="849" y2= "192" />
   <line class="fil1 str4" x1="886" y1="256" x2="738" y2= "256" />
   <line class="fil1 str4" x1="775" y1="192" x2="849" y2= "320" />
  </g>
  <path class="fil6 str3" d="M795 388l35 0 12 10 31 0c8,0 15,-3 20,-7 5,-5 8,-11 8,-18l0 -104 -9 0 -1 -27 20 0 0 128c0,21 -18,38 -39,38l-122 0c-21,0 -38,-17 -38,-38l0 -64 0 -64 18 0 -1 26 -8 0 0 104c0,7 3,13 9,18 5,5 12,7 20,7l32 0 12 -10z"/>
  <g>
   <path class="fil6" d="M812 174c45,0 82,37 82,82 0,45 -37,82 -82,82 -45,0 -82,-37 -82,-82 0,-45 37,-82 82,-82zm0 8c41,0 74,33 74,75 0,41 -33,75 -74,75 -41,0 -74,-33 -74,-75 0,-41 33,-75 74,-75z"/>
   <path id="1" class="fil6" d="M812 173c23,0 44,9 59,24 15,15 24,36 24,59 0,23 -9,44 -24,59 -15,15 -36,24 -59,24 -23,0 -44,-9 -59,-24 -15,-15 -24,-36 -24,-59 0,-23 9,-44 24,-59 15,-15 36,-24 59,-24zm0 1c45,0 82,37 82,82 0,45 -37,82 -82,82 -45,0 -82,-37 -82,-82 0,-45 37,-82 82,-82zm0 8c41,0 74,33 74,75 0,41 -33,75 -74,75 -41,0 -74,-33 -74,-75 0,-41 33,-75 74,-75zm52 23c-13,-13 -32,-22 -52,-22 -20,0 -39,8 -52,22 -13,13 -21,32 -21,52 0,20 8,39 21,52 13,13 32,22 52,22 20,0 39,-8 52,-22 13,-13 21,-32 21,-52 0,-20 -8,-39 -21,-52z"/>
  </g>
  <rect class="fil7 str5" x="798" y="409" width="29" height="22"/>
 </g>
</svg>
