<?xml version="1.0" encoding="UTF-8"?>
<!DOCTYPE svg PUBLIC "-//W3C//DTD SVG 1.1//EN" "http://www.w3.org/Graphics/SVG/1.1/DTD/svg11.dtd">
<!-- Creator: CorelDRAW 2018 (64-Bit) -->
<svg xmlns="http://www.w3.org/2000/svg" xml:space="preserve" width="46px" height="46px" version="1.1" style="shape-rendering:geometricPrecision; text-rendering:geometricPrecision; image-rendering:optimizeQuality; fill-rule:evenodd; clip-rule:evenodd"
viewBox="0 0 46 46"
 xmlns:xlink="http://www.w3.org/1999/xlink">
 <defs>
  <style type="text/css">
   <![CDATA[
    .fil1 {fill:#4682B4}
    .fil0 {fill:#4682B4;fill-rule:nonzero}
   ]]>
  </style>
 </defs>
 <g id="Слой_x0020_1">
  <metadata id="CorelCorpID_0Corel-Layer"/>
  <g id="_2112834076304">
   <path class="fil0" d="M29.01 25.57c-1.72,1.72 -1.72,3.44 -3.43,3.44 -1.72,0 -3.44,-1.72 -5.16,-3.44 -1.71,-1.71 -3.43,-3.43 -3.43,-5.14 0,-1.72 1.72,-1.72 3.43,-3.44 1.72,-1.71 -3.43,-6.86 -5.14,-6.86 -1.72,0 -5.15,5.15 -5.15,5.15 0,3.43 3.52,10.39 6.86,13.73 3.34,3.33 10.3,6.86 13.73,6.86 0,0 5.15,-3.43 5.15,-5.15 0,-1.71 -5.15,-6.86 -6.86,-5.15z"/>
   <path class="fil1" d="M23 -0.14c12.78,0 23.14,10.36 23.14,23.14 0,12.78 -10.36,23.14 -23.14,23.14 -12.78,0 -23.14,-10.36 -23.14,-23.14 0,-12.78 10.36,-23.14 23.14,-23.14zm0 2c11.68,0 21.14,9.46 21.14,21.14 0,11.68 -9.46,21.14 -21.14,21.14 -11.68,0 -21.14,-9.46 -21.14,-21.14 0,-11.68 9.46,-21.14 21.14,-21.14z"/>
  </g>
 </g>
</svg>
