<?xml version="1.0" encoding="UTF-8"?>
<!DOCTYPE svg PUBLIC "-//W3C//DTD SVG 1.1//EN" "http://www.w3.org/Graphics/SVG/1.1/DTD/svg11.dtd">
<!-- Creator: CorelDRAW 2018 (64-Bit) -->
<svg xmlns="http://www.w3.org/2000/svg" xml:space="preserve" width="46px" height="46px" version="1.1" style="shape-rendering:geometricPrecision; text-rendering:geometricPrecision; image-rendering:optimizeQuality; fill-rule:evenodd; clip-rule:evenodd"
viewBox="0 0 46 46"
 xmlns:xlink="http://www.w3.org/1999/xlink">
 <defs>
  <style type="text/css">
   <![CDATA[
    .fil0 {fill:#4682B4}
   ]]>
  </style>
 </defs>
 <g id="Слой_x0020_1">
  <metadata id="CorelCorpID_0Corel-Layer"/>
  <g id="_2112750540016">
   <path class="fil0" d="M25.21 23c0,-1.22 -0.99,-2.21 -2.21,-2.21 -1.22,0 -2.21,0.99 -2.21,2.21 0,1.22 0.99,2.21 2.21,2.21 1.22,0 2.21,-0.99 2.21,-2.21z"/>
   <rect class="fil0" transform="matrix(0.973481 0.228769 -0.217302 0.924682 26.0562 7.02629)" width="1.36" height="17.11"/>
   <rect class="fil0" transform="matrix(-0.30318 0.952933 -0.615528 -0.195833 33.0884 25.497)" width="1.36" height="17.11"/>
   <path class="fil0" d="M23 -0.14c12.78,0 23.14,10.36 23.14,23.14 0,12.78 -10.36,23.14 -23.14,23.14 -12.78,0 -23.14,-10.36 -23.14,-23.14 0,-12.78 10.36,-23.14 23.14,-23.14zm0 2c11.68,0 21.14,9.46 21.14,21.14 0,11.68 -9.46,21.14 -21.14,21.14 -11.68,0 -21.14,-9.46 -21.14,-21.14 0,-11.68 9.46,-21.14 21.14,-21.14z"/>
  </g>
 </g>
</svg>
