<?xml version="1.0" encoding="UTF-8"?>
<!DOCTYPE svg PUBLIC "-//W3C//DTD SVG 1.1//EN" "http://www.w3.org/Graphics/SVG/1.1/DTD/svg11.dtd">
<!-- Creator: CorelDRAW 2017 -->
<svg xmlns="http://www.w3.org/2000/svg" xml:space="preserve" width="2480px" height="1748px" version="1.1" style="shape-rendering:geometricPrecision; text-rendering:geometricPrecision; image-rendering:optimizeQuality; fill-rule:evenodd; clip-rule:evenodd"
viewBox="0 0 2480 1748"
 xmlns:xlink="http://www.w3.org/1999/xlink">
 <defs>
  <style type="text/css">
   <![CDATA[
    .str0 {stroke:#2B2A29}
    .str2 {stroke:#252525;stroke-width:48}
    .str1 {stroke:#2B2A29;stroke-width:2}
    .str3 {stroke:#252525;stroke-width:48;stroke-linecap:round}
    .fil1 {fill:none}
    .fil4 {fill:#FFED00}
    .fil2 {fill:#00A0E3}
    .fil3 {fill:#008DD2}
    .fil0 {fill:#252525}
   ]]>
  </style>
 </defs>
 <g id="Слой_x0020_1">
  <metadata id="CorelCorpID_0Corel-Layer"/>
  <path class="fil0" d="M1405 1474c6,-14 20,-21 33,-30 25,-18 96,-62 102,-81 12,-37 -48,-41 -73,-46 -34,-7 -64,-12 -97,-20 -46,-11 -48,-19 -78,-44 -95,-80 -148,1 -214,78 -61,72 -65,22 -96,86 -12,24 -12,13 -37,21 -23,7 -60,41 -84,32 -16,-6 -22,-23 -12,-40 7,-12 20,-20 27,-30 34,-47 13,-120 51,-131 45,-14 134,13 131,-49 -1,-27 -27,-59 -40,-79 -95,-148 -39,-108 -38,-177 1,-40 -35,-46 -69,-55 -43,-11 -48,-13 -73,-44 -53,-63 -89,-63 -168,-28 -54,24 -106,55 -159,80 -44,21 -43,31 -82,-2 -33,-27 -37,-23 -81,-38 -62,-21 -115,-41 -171,-69 -15,-7 -63,-35 -71,-51 -12,-26 24,-65 34,-79 18,-23 39,-45 49,-72 16,-44 11,-45 42,-76 60,-59 115,-70 147,-96 61,-50 32,-133 18,-186 -11,-41 22,-55 52,-65 27,-9 64,-23 94,-24 108,-4 211,112 218,51 2,-23 -15,-26 -29,-34 -109,-58 -151,-84 -274,-45 -188,61 -72,136 -88,233 -6,35 -35,42 -61,56 -164,87 -145,148 -172,189 -44,67 -145,136 -18,217 42,27 109,57 164,76l92 30c23,9 41,38 70,47 31,10 70,-13 93,-24 60,-30 97,-53 160,-80 32,-14 56,-29 85,-4 25,21 31,43 61,60 26,15 61,18 88,29 -1,29 -16,35 -14,75 2,42 34,86 56,119 10,15 29,39 33,57 -60,10 -116,-3 -141,51 -9,20 -12,52 -17,78 -6,32 -23,38 -37,58 -35,49 -10,108 45,116 33,5 54,-9 74,-21 47,-28 48,-8 69,-26 18,-16 19,-46 42,-55 18,-7 18,-5 32,-16 39,-34 72,-87 114,-122 45,-36 88,31 122,49 37,20 135,29 151,38 -5,18 -78,50 -112,91 -19,23 -15,58 17,65 30,6 69,-9 95,2 30,16 -6,92 14,141 18,44 66,43 105,18 23,-15 72,-61 96,-65 31,-6 38,3 66,-15 19,-12 27,-27 40,-37 13,-9 51,-7 70,-11 111,-24 100,-86 44,-111 -69,-31 -142,39 -198,-22 -14,-15 -29,-29 -30,-47 16,-13 50,-22 73,-38 9,-6 25,-17 30,-24 9,-14 23,-34 6,-38 -19,-5 -40,8 -54,18 -36,25 -86,34 -101,61 -25,44 56,117 76,128 65,35 156,-22 185,11 -18,24 -83,17 -113,26 -34,10 -34,51 -82,52 -90,3 -130,108 -173,78 -6,-45 12,-99 -5,-137 -20,-43 -57,-36 -109,-36z"/>
  <path class="fil0" d="M881 240c-8,52 45,31 118,54 17,5 85,40 122,54 57,21 105,13 124,-35 37,-95 -53,-123 212,-142 68,-5 98,-12 134,35 52,68 16,82 11,130 -8,80 91,37 118,62 37,26 -23,175 171,139 54,-10 80,-14 89,-11 1,0 2,1 3,1 25,8 -18,54 126,86 69,15 83,4 160,54 89,58 46,38 43,139 -3,76 17,43 18,88 1,31 -4,70 -19,90 -34,5 -108,-8 -131,8 -19,13 -36,70 -46,92 -22,47 -40,33 -86,53 -33,14 -63,30 -97,42 -16,6 -38,14 -26,39 9,18 35,8 50,2 33,-14 65,-28 97,-42 41,-17 63,-10 89,-48 19,-27 31,-79 47,-96 67,-7 131,24 156,-49 10,-31 21,-104 3,-134 -11,-19 -10,-18 -9,-46 4,-88 45,-92 -27,-148 -34,-27 -89,-61 -136,-73 -46,-12 -139,-14 -156,-50 -14,-29 -9,-45 -50,-54 -45,-10 -141,34 -179,16 -25,-11 -27,-45 -32,-73 -17,-83 -46,-75 -127,-81 3,-51 35,-62 0,-129 -17,-32 -44,-67 -80,-82 -51,-22 -233,3 -286,20 -141,43 -8,207 -156,151 -41,-15 -73,-36 -112,-50 -21,-7 -43,-9 -67,-14 -25,-5 -46,-13 -67,3z"/>
  <line class="fil1 str0" x1="92" y1="783" x2="2311" y2= "783" />
  <path class="fil2 str1" d="M136 783l2176 0c8,-76 37,-63 -44,-117 -76,-50 -91,-38 -160,-54 -144,-32 -101,-78 -126,-86 -1,0 -2,-1 -3,-1 -10,-3 -36,1 -89,11 -194,37 -133,-113 -171,-139 -27,-25 -126,18 -118,-62 5,-49 41,-62 -11,-130 -36,-47 -66,-40 -134,-35 -265,19 -175,47 -212,142 -19,48 -67,57 -124,35 -37,-14 -104,-48 -122,-54 -68,-21 -119,-5 -118,-45 -21,-5 -42,-11 -54,-15 -17,-6 -38,-12 -64,-21 -9,57 -111,-56 -217,-53 -31,1 -68,16 -94,24 -30,10 -62,23 -52,65 14,54 43,136 -18,186 -32,26 -86,37 -147,96 -32,31 -26,32 -42,76 -10,28 -31,50 -49,72 -10,13 -46,53 -34,79 3,7 14,16 27,24z"/>
  <path class="fil3 str1" d="M2311 783c8,-76 37,-63 -44,-117 -76,-50 -91,-38 -160,-54 -144,-32 -101,-78 -126,-86 -1,0 -2,-1 -3,-1 -10,-3 -36,1 -89,11 -194,37 -133,-113 -171,-139 -27,-25 -126,18 -118,-62 5,-49 41,-62 -11,-130 -36,-47 -66,-40 -134,-35 -265,19 -175,47 -212,142 -19,48 -67,57 -124,35 -37,-14 -104,-48 -122,-54 -68,-21 -119,-5 -118,-45 -21,-5 -42,-11 -54,-15 -17,-6 -38,-12 -64,-21 -9,57 -111,-56 -217,-53 -31,1 -68,16 -94,24 -30,10 -62,23 -52,65 14,54 43,136 -18,186 -32,26 -86,37 -147,96 -32,31 -26,32 -42,76 -10,28 -31,50 -49,72 -10,13 -46,53 -34,79 3,7 14,16 27,24l2176 0z"/>
  <path class="fil4 str1" d="M2311 783l-2176 0c16,11 36,22 44,26 55,27 109,48 171,69 44,15 48,11 81,38 39,33 38,23 82,2 53,-25 105,-56 159,-80 79,-35 115,-35 168,28 26,30 30,32 73,44 34,9 70,15 69,55 -2,69 -58,29 38,177 13,20 39,52 40,79 3,61 -86,35 -131,49 -39,12 -17,84 -51,131 -8,11 -20,18 -27,30 -11,18 -4,34 12,40 24,9 61,-24 84,-32 25,-8 25,3 37,-21 31,-64 35,-15 96,-86 66,-77 119,-158 214,-78 30,25 32,33 78,44 33,8 63,13 97,20 25,5 85,9 73,46 -6,19 -77,62 -102,81 -12,9 -26,15 -33,30 53,0 89,-7 109,36 17,38 -1,92 5,137 43,29 83,-76 173,-78 48,-1 48,-42 82,-52 30,-9 96,-2 113,-26 -29,-33 -120,24 -185,-11 -20,-11 -101,-85 -76,-128 15,-27 66,-35 101,-61 13,-10 34,-22 54,-18 6,1 8,5 8,10l133 -67c0,0 0,0 0,0 -13,-25 10,-33 26,-39 33,-12 64,-28 97,-42 46,-20 63,-6 86,-53 11,-22 28,-79 46,-92 23,-16 97,-3 131,-8 15,-20 19,-58 19,-90 -1,-44 -21,-11 -18,-88 0,-8 1,-15 2,-22z"/>
  <path class="fil1 str2" d="M728 201c40,15 72,25 96,33 24,8 90,24 111,25"/>
  <line class="fil1 str3" x1="1766" y1="1295" x2="1951" y2= "1201" />
 </g>
</svg>
